<?xml version="1.0" standalone="no"?><!DOCTYPE svg PUBLIC "-//W3C//DTD SVG 1.1//EN" "http://www.w3.org/Graphics/SVG/1.1/DTD/svg11.dtd"><svg xmlns:xlink="http://www.w3.org/1999/xlink" xmlns="http://www.w3.org/2000/svg" version="1.1" width="200" height="200" viewBox="0 0 200 200"><defs><style type="text/css"><![CDATA[
@font-face {
  font-family: "ifont";
  src: url("//at.alicdn.com/t/font_1442373896_4754455.eot?#iefix") format("embedded-opentype"), url("//at.alicdn.com/t/font_1442373896_4754455.woff") format("woff"), url("//at.alicdn.com/t/font_1442373896_4754455.ttf") format("truetype"), url("//at.alicdn.com/t/font_1442373896_4754455.svg#ifont") format("svg");
}

]]></style></defs><g class="transform-group"><g transform="scale(0.1953125, 0.1953125)"><path d="M511.913993 63.989249C317.882076 63.989249 159.973123 221.898203 159.973123 415.930119c0 187.323366 315.473879 519.998656 328.890979 534.103813 6.020494 6.364522 14.449185 9.976818 23.221905 9.976818 0.172014 0 0.516042 0 0.688056 0 8.944734 0 17.545439-4.128339 23.393919-11.008903l109.22896-125.054258c145.179909-177.690576 218.629934-314.957836 218.629934-407.845456C864.026877 221.898203 706.117924 63.989249 511.913993 63.989249zM511.913993 575.903242c-88.415253 0-159.973123-71.55787-159.973123-159.973123s71.55787-159.973123 159.973123-159.973123 159.973123 71.55787 159.973123 159.973123S600.329246 575.903242 511.913993 575.903242z" fill="#272636"></path></g></g></svg>